<svg width="1440" height="1024" viewBox="0 0 1440 1024" fill="none" xmlns="http://www.w3.org/2000/svg">
<g clip-path="url(#clip0_1_2)">
<rect width="1440" height="1024" fill="url(#paint0_linear_1_2)"/>
<g filter="url(#filter0_b_1_2)">
<path d="M-3.07259 719.974C-121.382 654.84 -45.2295 559.331 -234.154 490.289C-129.802 441.131 -68.1991 183.524 57.3767 325.28C157.703 462.261 212.728 334.644 268.09 563.144C329.653 817.241 18.8469 615.879 -3.07259 719.974Z" fill="url(#paint1_linear_1_2)" fill-opacity="0.18"/>
</g>
<g filter="url(#filter1_b_1_2)">
<path d="M447.331 875.121C364.335 1045.29 313.815 1183.68 149.115 1183.68C2.3384 1062.52 -149.101 1045.53 -149.101 875.121C-45.9278 697.08 -15.5851 566.562 149.115 566.562C257.46 610.891 447.331 704.709 447.331 875.121Z" fill="#FFD23F" fill-opacity="0.25"/>
</g>
<g filter="url(#filter2_b_1_2)">
<path d="M1543.26 43.0859C1552.61 203.751 1570.52 329.981 1470.46 373.008C1338.74 312.4 1240.77 338.085 1180.92 198.901C1157.46 19.8345 1153.66 -87.9941 1253.72 -131.021C1335.11 -123.12 1483.41 -96.098 1543.26 43.0859Z" fill="#CF89F0" fill-opacity="0.25"/>
</g>
<path d="M1448.73 669.646C1461.11 654.374 1480.19 646.138 1499.79 647.6L1699.82 662.517C1748.03 666.112 1772.41 722.32 1742.1 759.975L1486.51 1077.48C1475.12 1091.63 1457.93 1099.86 1439.77 1099.86H1225.8C1175.3 1099.86 1147.39 1041.29 1179.19 1002.07L1448.73 669.646Z" fill="url(#paint2_radial_1_2)" fill-opacity="0.25"/>
<path opacity="0.5" d="M415.458 130.815C415.458 287.747 283.742 414.965 121.262 414.965C-41.2176 414.965 -172.933 287.747 -172.933 130.815C-172.933 -26.1165 -41.2176 -153.335 121.262 -153.335C283.742 -153.335 415.458 -26.1165 415.458 130.815Z" fill="url(#paint3_linear_1_2)" fill-opacity="0.25"/>
<circle opacity="0.5" cx="1231.01" cy="414.965" r="66.1286" fill="url(#paint4_linear_1_2)" fill-opacity="0.3"/>
<path d="M1798.03 474.437C1798.03 812.537 1507.92 1087.47 1148.98 1087.47C790.554 1087.47 531.732 816.779 531.732 478.17C531.732 139.419 790.694 -138.6 1148.98 -138.6C1507.92 -138.6 1798.03 136.337 1798.03 474.437Z" stroke="#ECE1E1" stroke-opacity="0.25" stroke-width="18"/>
<path d="M1630.61 859.739C1630.61 1026.53 1487.42 1162.6 1309.7 1162.6C1132.5 1162.6 1004.72 1028.91 1004.72 861.61C1004.72 694.165 1132.64 556.878 1309.7 556.878C1487.42 556.878 1630.61 692.944 1630.61 859.739Z" stroke="#ECE1E1" stroke-opacity="0.25" stroke-width="18"/>
<path d="M1660.35 630.572L1128.49 1099.86L1063.83 1083.17L1660.35 630.572Z" fill="#FF006E" fill-opacity="0.2"/>
<path d="M-471.519 -545.924L43.4875 -671.81L400.035 -279.442L241.441 239.255L-273.565 365.14L-630.113 -27.2273L-471.519 -545.924Z" stroke="#E6DDE2" stroke-opacity="0.25" stroke-width="18"/>
<path d="M-25.9558 768.306L257.602 539.206L-117.845 755.484L-160.962 821.018L-25.9558 768.306Z" fill="#E94600" fill-opacity="0.25"/>
<mask id="mask0_1_2" style="mask-type:alpha" maskUnits="userSpaceOnUse" x="596" y="211" width="447" height="394">
<path d="M698.638 578.569L606.586 391.483L727 221.262L939.929 238.163L1031.98 425.249L911.567 595.47L698.638 578.569Z" stroke="#E6DDE2" stroke-opacity="0.25" stroke-width="18"/>
</mask>
<g mask="url(#mask0_1_2)">
<path opacity="0.5" d="M885.292 173.723C947.356 160.006 1009.18 200.978 1023.39 265.237C1037.59 329.496 998.787 392.708 936.722 406.425C874.658 420.143 812.831 379.17 798.629 314.911C784.427 250.653 823.227 187.44 885.292 173.723Z" fill="url(#paint5_linear_1_2)" fill-opacity="0.3"/>
</g>
<mask id="mask1_1_2" style="mask-type:alpha" maskUnits="userSpaceOnUse" x="537" y="280" width="447" height="394">
<path d="M639.567 647.046L547.515 459.96L667.928 289.739L880.858 306.641L972.91 493.727L852.496 663.948L639.567 647.046Z" stroke="#E6DDE2" stroke-opacity="0.25" stroke-width="18"/>
</mask>
<g mask="url(#mask1_1_2)">
<path opacity="0.5" d="M826.22 242.201C888.285 228.483 950.111 269.455 964.314 333.714C978.516 397.973 939.716 461.185 877.651 474.903C815.586 488.62 753.76 447.648 739.557 383.389C725.355 319.13 764.155 255.918 826.22 242.201Z" fill="url(#paint6_linear_1_2)" fill-opacity="0.3"/>
</g>
<mask id="mask2_1_2" style="mask-type:alpha" maskUnits="userSpaceOnUse" x="488" y="347" width="447" height="394">
<path d="M591.155 714.611L499.103 527.525L619.516 357.304L832.446 374.205L924.498 561.291L804.084 731.512L591.155 714.611Z" stroke="#E6DDE2" stroke-opacity="0.25" stroke-width="18"/>
</mask>
<g mask="url(#mask2_1_2)">
<path opacity="0.5" d="M777.808 309.765C839.873 296.048 901.699 337.02 915.902 401.279C930.104 465.538 891.304 528.75 829.239 542.467C767.174 556.185 705.348 515.212 691.145 450.953C676.943 386.695 715.743 323.482 777.808 309.765Z" fill="url(#paint7_linear_1_2)" fill-opacity="0.3"/>
</g>
<path d="M-180.434 1014.61L266.81 586.846L398.36 1191.58L-180.434 1014.61Z" stroke="#E6DDE2" stroke-opacity="0.25" stroke-width="18"/>
<mask id="mask3_1_2" style="mask-type:alpha" maskUnits="userSpaceOnUse" x="242" y="195" width="830" height="828">
<path d="M252.904 516.099L526.989 205.314L930.935 297.707L1060.94 701.328L786.856 1012.11L382.909 919.719L252.904 516.099Z" stroke="#E6DDE2" stroke-opacity="0.25" stroke-width="18"/>
</mask>
<g mask="url(#mask3_1_2)">
<path d="M339.716 916.291C315.367 899.972 306.374 868.449 318.445 841.739L338.324 797.756C360.111 749.549 429.093 751.081 448.718 800.209L518.204 974.157V974.157C534.823 1012.11 484.338 1043.19 457.935 1011.25L432.603 980.615C430.06 977.538 427.084 974.847 423.768 972.624L339.716 916.291Z" fill="url(#paint8_linear_1_2)" fill-opacity="0.3"/>
</g>
<mask id="mask4_1_2" style="mask-type:alpha" maskUnits="userSpaceOnUse" x="301" y="130" width="829" height="827">
<path d="M311.773 450.838L585.858 140.054L989.804 232.447L1119.81 636.068L845.725 946.852L441.778 854.459L311.773 450.838Z" stroke="#E6DDE2" stroke-opacity="0.25" stroke-width="18"/>
</mask>
<g mask="url(#mask4_1_2)">
<path d="M398.585 851.03C374.236 834.711 365.243 803.189 377.314 776.479L397.193 732.496C418.98 684.288 487.962 685.821 507.587 734.949L577.073 908.897V908.897C593.692 946.854 543.207 977.929 516.804 945.994L491.473 915.354C488.929 912.278 485.953 909.586 482.637 907.364L398.585 851.03Z" fill="url(#paint9_linear_1_2)" fill-opacity="0.3"/>
</g>
<mask id="mask5_1_2" style="mask-type:alpha" maskUnits="userSpaceOnUse" x="365" y="81" width="829" height="828">
<path d="M375.661 402.326L649.746 91.5413L1053.69 183.935L1183.7 587.555L909.613 898.34L505.666 805.947L375.661 402.326Z" stroke="#E6DDE2" stroke-opacity="0.25" stroke-width="18"/>
</mask>
<g mask="url(#mask5_1_2)">
<path d="M462.473 802.518C438.125 786.199 429.131 754.676 441.203 727.966L461.081 683.983C482.869 635.776 551.85 637.309 571.475 686.436L640.962 860.384V860.384C657.58 898.342 607.095 929.417 580.693 897.482L555.361 866.842C552.817 863.765 549.841 861.074 546.525 858.852L462.473 802.518Z" fill="url(#paint10_linear_1_2)" fill-opacity="0.3"/>
</g>
<path d="M1191.42 450.916L1466.44 192.558L1501.1 200.358L1191.42 450.916Z" fill="url(#paint11_linear_1_2)" fill-opacity="0.25"/>
<path d="M2324.45 -302.252C2324.45 38.0812 2020.18 314.785 1643.8 314.785C1267.71 314.785 996.285 42.0901 996.285 -298.519C996.285 -639.206 1267.79 -919.289 1643.8 -919.289C2020.18 -919.289 2324.45 -642.585 2324.45 -302.252Z" stroke="#ECE1E1" stroke-opacity="0.25" stroke-width="10"/>
</g>
<defs>
<filter id="filter0_b_1_2" x="-238.154" y="279.179" width="518.299" height="444.795" filterUnits="userSpaceOnUse" color-interpolation-filters="sRGB">
<feFlood flood-opacity="0" result="BackgroundImageFix"/>
<feGaussianBlur in="BackgroundImage" stdDeviation="2"/>
<feComposite in2="SourceAlpha" operator="in" result="effect1_backgroundBlur_1_2"/>
<feBlend mode="normal" in="SourceGraphic" in2="effect1_backgroundBlur_1_2" result="shape"/>
</filter>
<filter id="filter1_b_1_2" x="-153.101" y="562.562" width="604.432" height="625.117" filterUnits="userSpaceOnUse" color-interpolation-filters="sRGB">
<feFlood flood-opacity="0" result="BackgroundImageFix"/>
<feGaussianBlur in="BackgroundImage" stdDeviation="2"/>
<feComposite in2="SourceAlpha" operator="in" result="effect1_backgroundBlur_1_2"/>
<feBlend mode="normal" in="SourceGraphic" in2="effect1_backgroundBlur_1_2" result="shape"/>
</filter>
<filter id="filter2_b_1_2" x="1163.12" y="-135.021" width="391.681" height="512.03" filterUnits="userSpaceOnUse" color-interpolation-filters="sRGB">
<feFlood flood-opacity="0" result="BackgroundImageFix"/>
<feGaussianBlur in="BackgroundImage" stdDeviation="2"/>
<feComposite in2="SourceAlpha" operator="in" result="effect1_backgroundBlur_1_2"/>
<feBlend mode="normal" in="SourceGraphic" in2="effect1_backgroundBlur_1_2" result="shape"/>
</filter>
<linearGradient id="paint0_linear_1_2" x1="720" y1="0" x2="720" y2="1024" gradientUnits="userSpaceOnUse">
<stop stop-color="#FFD23F"/>
<stop offset="1" stop-color="#FFB9CA"/>
</linearGradient>
<linearGradient id="paint1_linear_1_2" x1="181.082" y1="604.728" x2="114.388" y2="403.932" gradientUnits="userSpaceOnUse">
<stop stop-color="#A60321"/>
<stop offset="1" stop-color="#0B16E1"/>
</linearGradient>
<radialGradient id="paint2_radial_1_2" cx="0" cy="0" r="1" gradientUnits="userSpaceOnUse" gradientTransform="translate(1446.15 787.072) rotate(90) scale(544.952 266.992)">
<stop offset="0.0104167" stop-color="#FF007A" stop-opacity="0.65"/>
<stop offset="1" stop-color="#CCFF00"/>
</radialGradient>
<linearGradient id="paint3_linear_1_2" x1="366.664" y1="193.194" x2="297.779" y2="325.223" gradientUnits="userSpaceOnUse">
<stop stop-color="#F53F6B"/>
<stop offset="1" stop-color="#A1BA3D"/>
</linearGradient>
<linearGradient id="paint4_linear_1_2" x1="1231.01" y1="348.836" x2="1297.14" y2="481.094" gradientUnits="userSpaceOnUse">
<stop stop-color="#E56386"/>
<stop offset="1" stop-color="#E1D3D4"/>
</linearGradient>
<linearGradient id="paint5_linear_1_2" x1="914.227" y1="187.568" x2="972.464" y2="203.271" gradientUnits="userSpaceOnUse">
<stop stop-color="#F53F6B"/>
<stop offset="1" stop-color="#A1BA3D"/>
</linearGradient>
<linearGradient id="paint6_linear_1_2" x1="855.155" y1="256.045" x2="913.392" y2="271.748" gradientUnits="userSpaceOnUse">
<stop stop-color="#F53F6B"/>
<stop offset="1" stop-color="#A1BA3D"/>
</linearGradient>
<linearGradient id="paint7_linear_1_2" x1="806.743" y1="323.61" x2="864.98" y2="339.313" gradientUnits="userSpaceOnUse">
<stop stop-color="#F53F6B"/>
<stop offset="1" stop-color="#A1BA3D"/>
</linearGradient>
<linearGradient id="paint8_linear_1_2" x1="408.163" y1="898.811" x2="397.969" y2="897.351" gradientUnits="userSpaceOnUse">
<stop offset="0.0104167" stop-color="#FF007A" stop-opacity="0.65"/>
<stop offset="1" stop-color="#CCFF00"/>
</linearGradient>
<linearGradient id="paint9_linear_1_2" x1="467.032" y1="833.55" x2="456.838" y2="832.091" gradientUnits="userSpaceOnUse">
<stop offset="0.0104167" stop-color="#FF007A" stop-opacity="0.65"/>
<stop offset="1" stop-color="#CCFF00"/>
</linearGradient>
<linearGradient id="paint10_linear_1_2" x1="530.92" y1="785.038" x2="520.726" y2="783.579" gradientUnits="userSpaceOnUse">
<stop offset="0.0104167" stop-color="#FF007A" stop-opacity="0.65"/>
<stop offset="1" stop-color="#CCFF00"/>
</linearGradient>
<linearGradient id="paint11_linear_1_2" x1="1230.9" y1="426.894" x2="1546.62" y2="191.485" gradientUnits="userSpaceOnUse">
<stop stop-color="#B0D620"/>
<stop offset="1" stop-color="#CB272B"/>
</linearGradient>
<clipPath id="clip0_1_2">
<rect width="1440" height="1024" fill="white"/>
</clipPath>
</defs>
</svg>
